<svg id="info" xmlns="http://www.w3.org/2000/svg" width="21" height="21" viewBox="0 0 21 21">
  <path id="Path_33382" data-name="Path 33382" d="M12.715,10.983a.733.733,0,0,0-1.465,0v5.86a.733.733,0,0,0,1.465,0Z" transform="translate(-1.483 -1.459)" fill="#fff"/>
  <path id="Path_33383" data-name="Path 33383" d="M11.75,1.25a10.5,10.5,0,1,0,10.5,10.5A10.5,10.5,0,0,0,11.75,1.25ZM2.715,11.75a9.035,9.035,0,1,1,9.035,9.035A9.035,9.035,0,0,1,2.715,11.75Z" transform="translate(-1.25 -1.25)" fill="#fff" fill-rule="evenodd"/>
  <path id="Path_33384" data-name="Path 33384" d="M12.953,7.977A.977.977,0,1,1,11.977,7,.977.977,0,0,1,12.953,7.977Z" transform="translate(-1.477 -1.384)" fill="#fff"/>
</svg>
