<svg id="g2505" xmlns="http://www.w3.org/2000/svg" xmlns:xlink="http://www.w3.org/1999/xlink" width="21" height="21" viewBox="0 0 21 21">
  <defs>
    <clipPath id="clip-path">
      <path id="path2511" d="M0-682.665H21v21H0Z" transform="translate(0 682.665)" fill="#fff"/>
    </clipPath>
  </defs>
  <g id="g2507">
    <g id="g2509" clip-path="url(#clip-path)">
      <g id="g2515" transform="translate(3.732 0.615)">
        <path id="path2517" d="M-213.232-622.9c-2.461-3.691-6.768-8.7-6.768-13a6.775,6.775,0,0,1,6.768-6.768,6.775,6.775,0,0,1,6.768,6.768C-206.464-631.591-210.771-626.587-213.232-622.9Z" transform="translate(219.999 642.665)" fill="none" stroke="#fff" stroke-linecap="round" stroke-linejoin="round" stroke-miterlimit="10" stroke-width="1.5"/>
      </g>
      <g id="g2519" transform="translate(7.424 4.307)">
        <path id="path2521" d="M-96.924-193.847A3.08,3.08,0,0,1-100-196.923,3.08,3.08,0,0,1-96.924-200a3.08,3.08,0,0,1,3.076,3.076A3.08,3.08,0,0,1-96.924-193.847Z" transform="translate(100 200)" fill="none" stroke="#fff" stroke-linecap="round" stroke-linejoin="round" stroke-miterlimit="10" stroke-width="1.5"/>
      </g>
    </g>
  </g>
</svg>
