<svg xmlns="http://www.w3.org/2000/svg" width="20" height="20" viewBox="0 0 20 20">
  <g id="Group_38735" data-name="Group 38735" transform="translate(10152 874)">
    <rect id="Rectangle_14906" data-name="Rectangle 14906" width="20" height="20" transform="translate(-10152 -874)" fill="none"/>
    <g fill="currentColor" id="notification" transform="translate(-10149.238 -872.75)">
      <path id="Path_33501" data-name="Path 33501" d="M17.752,11.988l-.643-1.024a2.966,2.966,0,0,1-.454-1.577V6.844a5.743,5.743,0,1,0-11.487,0V9.388a2.968,2.968,0,0,1-.454,1.577l-.643,1.024a2.605,2.605,0,0,0-.4,1.388v.635a1.639,1.639,0,0,0,1.637,1.637H8.063c0,.033-.006.064-.006.1a2.855,2.855,0,1,0,5.709,0c0-.033-.006-.064-.006-.1h2.754a1.639,1.639,0,0,0,1.637-1.637v-.635a2.605,2.605,0,0,0-.4-1.388ZM12.71,15.745a1.8,1.8,0,1,1-3.6,0c0-.033,0-.065.006-.1H12.7c0,.033.007.063.007.1Zm4.384-1.734a.58.58,0,0,1-.58.58H5.309a.58.58,0,0,1-.58-.58v-.635a1.55,1.55,0,0,1,.238-.826l.643-1.024a4.021,4.021,0,0,0,.615-2.139V6.844a4.686,4.686,0,1,1,9.372,0V9.388a4.021,4.021,0,0,0,.615,2.139l.643,1.024a1.55,1.55,0,0,1,.238.826Z" transform="translate(-3.672 -1.1)"/>
    </g>
  </g>
</svg>
