<svg xmlns="http://www.w3.org/2000/svg" width="16" height="16" viewBox="0 0 16 16">
  <g id="Group_40634" data-name="Group 40634" transform="translate(20549 18596)">
    <rect id="Rectangle_15457" data-name="Rectangle 15457" width="16" height="16" transform="translate(-20549 -18596)" fill="none"/>
    <g id="_3-Check" data-name="3-Check" transform="translate(-20580 -18645.447)">
      <path id="Path_36972" data-name="Path 36972" d="M36.561,63.862a.307.307,0,0,1-.265-.152c-1.148-1.955-4.206-6.116-4.236-6.158a.307.307,0,0,1,.032-.4l.94-.929a.307.307,0,0,1,.392-.033L36.5,58.337a37.958,37.958,0,0,1,5.191-5.505,19.223,19.223,0,0,1,2.326-1.757.307.307,0,0,1,.158-.044h1.521a.307.307,0,0,1,.2.536,43.358,43.358,0,0,0-6.168,7.521c-1.706,2.525-2.89,4.6-2.9,4.619a.307.307,0,0,1-.265.155Z" fill="#06a77d"/>
    </g>
  </g>
</svg>
