<svg id="Group_20785" data-name="Group 20785" xmlns="http://www.w3.org/2000/svg" width="16" height="16" viewBox="0 0 16 16">
  <rect id="Rectangle_9941" data-name="Rectangle 9941" width="16" height="16" fill="none"/>
  <path id="cross_2_" data-name="cross (2)" d="M13.829.171h0a.583.583,0,0,0-.825,0l-6,6-6-6a.583.583,0,0,0-.825,0h0A.583.583,0,0,0,.171,1l6,6-6,6a.583.583,0,0,0,0,.825h0a.583.583,0,0,0,.825,0l6-6,6,6a.583.583,0,0,0,.825,0h0a.583.583,0,0,0,0-.825l-6-6,6-6a.583.583,0,0,0,0-.825Z" transform="translate(1 1)" fill="currentColor"/>
</svg>
