<svg id="Group_40964" data-name="Group 40964" xmlns="http://www.w3.org/2000/svg" width="24" height="24" viewBox="0 0 24 24">
  <rect id="Rectangle_15548" data-name="Rectangle 15548" width="24" height="24" fill="none"/>
  <g id="Search_1_" transform="translate(1.499 1.5)">
    <circle id="Ellipse_2906" data-name="Ellipse 2906" cx="8.787" cy="8.787" r="8.787" fill="none" stroke="currentColor" stroke-width="1.5"/>
    <line id="Line_2778" data-name="Line 2778" x1="6" y1="6" transform="translate(15 15)" fill="none" stroke="currentColor" stroke-width="1.5"/>
    <g id="Group_40964-2" data-name="Group 40964" transform="translate(2.627 2.965)">
      <g id="g1322" transform="translate(0 5.813)">
        <path id="path1324" d="M12.319-135.118a6.169,6.169,0,0,0-6.159-5.828A6.169,6.169,0,0,0,0-135.117" transform="translate(0 140.946)" fill="none" stroke="currentColor" stroke-width="1.5"/>
      </g>
      <path id="path1328" d="M-140.593-67.39a2.907,2.907,0,0,0,2.907,2.907,2.907,2.907,0,0,0,2.907-2.907,2.907,2.907,0,0,0-2.907-2.907A2.907,2.907,0,0,0-140.593-67.39Z" transform="translate(143.846 70.297)" fill="none" stroke="currentColor" stroke-width="1.5"/>
    </g>
  </g>
</svg>
