<svg xmlns="http://www.w3.org/2000/svg" width="12" height="12" viewBox="0 0 12 12">
  <g id="Group_38043" data-name="Group 38043" transform="translate(540 -1761)">
    <rect id="Rectangle_14656" data-name="Rectangle 14656" width="12" height="12" transform="translate(-540 1761)" fill="none"/>
    <g id="_19" data-name="19" transform="translate(-539.249 1761.749)">
      <path id="Path_33392" data-name="Path 33392" d="M11.749,15.515a.75.75,0,0,1-.532-1.282l3.975-3.967L11.216,6.3A.75.75,0,0,1,12.274,5.24l4.5,4.5a.75.75,0,0,1,0,1.058l-4.5,4.5a.75.75,0,0,1-.525.218Z" transform="translate(-6.494 -5.012)" fill="currentColor"/>
      <path id="Path_33393" data-name="Path 33393" d="M5.749,15.5a.75.75,0,0,1-.533-1.282l3.975-3.967L5.216,6.281A.753.753,0,0,1,6.281,5.216l4.5,4.5a.75.75,0,0,1,0,1.057l-4.5,4.5A.75.75,0,0,1,5.749,15.5Z" transform="translate(-4.994 -4.996)" fill="currentColor"/>
    </g>
  </g>
</svg>
