<svg xmlns="http://www.w3.org/2000/svg" width="24" height="24" viewBox="0 0 24 24">
  <g id="Group_40498" data-name="Group 40498" transform="translate(20214 8749)">
    <rect id="Rectangle_15347" data-name="Rectangle 15347" width="24" height="24" transform="translate(-20214 -8749)" fill="none"/>
    <path id="thunder" d="M84.665.839,83.491,8.693h6.223a.3.3,0,0,1,.3.3.287.287,0,0,1-.071.191l-8.913,12.2a.3.3,0,0,1-.416.064.294.294,0,0,1-.118-.281L81.668,13.3H75.445a.3.3,0,0,1-.3-.3.3.3,0,0,1,.069-.193L84.131.619a.3.3,0,0,1,.534.219Z" transform="translate(-20284.578 -8747.999)" fill="#fb0"/>
  </g>
</svg>
