<svg xmlns="http://www.w3.org/2000/svg" width="14" height="14" viewBox="0 0 14 14">
  <g id="male_1_" data-name="male (1)" transform="translate(-15.004 -14.999)">
    <path id="Subtraction_3" data-name="Subtraction 3" d="M21193.477,6150a5.478,5.478,0,0,1,0-10.956,5.411,5.411,0,0,1,3.209,1.038l2.342-2.336h-1.092V6136H21202v4.065h-1.746v-1.085l-2.336,2.336a5.421,5.421,0,0,1,1.037,3.208A5.484,5.484,0,0,1,21193.477,6150Zm0-9.216a3.738,3.738,0,1,0,3.736,3.741A3.741,3.741,0,0,0,21193.477,6140.782Z" transform="translate(-21173 -6121)" fill="#1564e8"/>
  </g>
</svg>
