<svg xmlns="http://www.w3.org/2000/svg" xmlns:xlink="http://www.w3.org/1999/xlink" width="22" height="22" viewBox="0 0 22 22">
  <defs>
    <clipPath id="clip-path">
      <path id="path2142" d="M0-682.665H22v22H0Z" transform="translate(0 682.665)"/>
    </clipPath>
  </defs>
  <g id="Group_39357" data-name="Group 39357" transform="translate(264 -1)">
    <g id="g2136" transform="translate(-264 1)">
      <g id="g2138">
        <g id="g2140" clip-path="url(#clip-path)">
          <g id="g2146" transform="translate(5.801 6.187)">
            <path id="path2148" d="M-260.653,0h-6.961a1.719,1.719,0,0,0-1.719,1.719v4.6a1.719,1.719,0,0,0,1.719,1.719h6.961a1.719,1.719,0,0,0,1.719-1.719v-4.6A1.719,1.719,0,0,0-260.653,0Z" transform="translate(269.333 0)" fill="none" stroke="currentColor" stroke-width="1.2"/>
          </g>
          <g id="g2150" transform="translate(8.507 0.859)">
            <path id="path2152" d="M-74.841,0a2.461,2.461,0,0,0-2.492,2.429v2.9" transform="translate(77.333)" fill="none" stroke="currentColor" stroke-width="1.2"/>
          </g>
          <g id="g2154" transform="translate(10.999 0.859)">
            <path id="path2156" d="M-74.841-159.887v-2.9a2.461,2.461,0,0,0-2.492-2.429" transform="translate(77.333 165.212)" fill="none" stroke="currentColor" stroke-width="1.2"/>
          </g>
          <g id="g2158" transform="translate(0.859 14.223)">
            <path id="path2160" d="M-532.919,0h1.246a1.289,1.289,0,0,1,1.289,1.289v4.34a1.289,1.289,0,0,1-1.289,1.289h-17.7a1.289,1.289,0,0,1-1.289-1.289V1.289A1.289,1.289,0,0,1-549.376,0h1.633" transform="translate(550.665)" fill="none" stroke="currentColor" stroke-width="1.2"/>
          </g>
          <g id="g2162" transform="translate(8.422 16.844)">
            <path fill="currentColor" id="path2164" d="M-51.614-25.807a.859.859,0,0,1-.859.859.859.859,0,0,1-.859-.859.859.859,0,0,1,.859-.859.859.859,0,0,1,.859.859" transform="translate(53.333 26.667)"/>
          </g>
          <g id="g2166" transform="translate(4.984 16.844)">
            <path fill="currentColor"  id="path2168" d="M-51.614-25.807a.859.859,0,0,1-.859.859.859.859,0,0,1-.859-.859.859.859,0,0,1,.859-.859.859.859,0,0,1,.859.859" transform="translate(53.333 26.667)"/>
          </g>
          <g id="g2170" transform="translate(11.859 16.844)">
            <path fill="currentColor"  id="path2172" d="M-51.614-25.807a.859.859,0,0,1-.859.859.859.859,0,0,1-.859-.859.859.859,0,0,1,.859-.859.859.859,0,0,1,.859.859" transform="translate(53.333 26.667)"/>
          </g>
          <g id="g2174" transform="translate(15.297 16.844)">
            <path fill="currentColor"  id="path2176" d="M-51.614-25.807a.859.859,0,0,1-.859.859.859.859,0,0,1-.859-.859.859.859,0,0,1,.859-.859.859.859,0,0,1,.859.859" transform="translate(53.333 26.667)"/>
          </g>
          <g id="g2178" transform="translate(10.141 9.324)">
            <path fill="currentColor"  id="path2180" d="M-51.614-25.807a.859.859,0,0,1-.859.859.859.859,0,0,1-.859-.859.859.859,0,0,1,.859-.859.859.859,0,0,1,.859.859" transform="translate(53.333 26.667)"/>
          </g>
        </g>
      </g>
    </g>
  </g>
</svg>
