<svg id="g1995" xmlns="http://www.w3.org/2000/svg" xmlns:xlink="http://www.w3.org/1999/xlink" width="21" height="21" viewBox="0 0 21 21">
  <defs>
    <clipPath id="clip-path">
      <path id="path2001" d="M0-682.665H21v21H0Z" transform="translate(0 682.665)" fill="#fff"/>
    </clipPath>
  </defs>
  <g id="g1997">
    <g id="g1999" clip-path="url(#clip-path)">
      <g id="g2005" transform="translate(8.616 13.475)">
        <path id="path2007" d="M-70.881-12.154a1.319,1.319,0,0,1,0,1.864,1.316,1.316,0,0,1-1.862,0,1.313,1.313,0,0,1,0-1.864A1.316,1.316,0,0,1-70.881-12.154Z" transform="translate(73.13 12.54)" fill="none" stroke="#fff" stroke-linecap="round" stroke-linejoin="round" stroke-miterlimit="10" stroke-width="1.5"/>
      </g>
      <g id="g2009" transform="translate(8.616 6.02)">
        <path id="path2011" d="M-70.881-12.154a1.319,1.319,0,0,1,0,1.864,1.316,1.316,0,0,1-1.862,0,1.313,1.313,0,0,1,0-1.864A1.316,1.316,0,0,1-70.881-12.154Z" transform="translate(73.13 12.54)" fill="none" stroke="#fff" stroke-linecap="round" stroke-linejoin="round" stroke-miterlimit="10" stroke-width="1.5"/>
      </g>
      <g id="g2013" transform="translate(14.342 4.024)">
        <path id="path2015" d="M-70.906-12.154a1.319,1.319,0,0,1,0,1.864,1.32,1.32,0,0,1-1.865,0,1.319,1.319,0,0,1,0-1.864A1.32,1.32,0,0,1-70.906-12.154Z" transform="translate(73.156 12.54)" fill="none" stroke="#fff" stroke-linecap="round" stroke-linejoin="round" stroke-miterlimit="10" stroke-width="1.5"/>
      </g>
      <g id="g2017" transform="translate(5.742 10.6)">
        <path id="path2019" d="M0-29.36l8.386-.932" transform="translate(0 30.292)" fill="none" stroke="#fff" stroke-linecap="round" stroke-linejoin="round" stroke-miterlimit="10" stroke-width="1.5"/>
      </g>
      <g id="g2021" transform="translate(0.615 0.615)">
        <path id="path2023" d="M-562.06-354.452a6.59,6.59,0,0,0,0-9.319,6.588,6.588,0,0,0-9.318,0l-8.521,8.52,9.318,9.319Z" transform="translate(579.899 365.701)" fill="none" stroke="#fff" stroke-linecap="round" stroke-linejoin="round" stroke-miterlimit="10" stroke-width="1.5"/>
      </g>
      <g id="g2025" transform="translate(16.592 0.615)">
        <path id="path2027" d="M0-119.544l3.792-3.794" transform="translate(0 123.338)" fill="none" stroke="#fff" stroke-linecap="round" stroke-linejoin="round" stroke-miterlimit="10" stroke-width="1.5"/>
      </g>
    </g>
  </g>
</svg>
