<svg id="add_1_" data-name="add (1)" xmlns="http://www.w3.org/2000/svg" width="21" height="21" viewBox="0 0 21 21">
  <g id="Group_41505" data-name="Group 41505">
    <g id="Group_41504" data-name="Group 41504">
      <path id="Path_37101" data-name="Path 37101" d="M17.25,0H3.75A3.754,3.754,0,0,0,0,3.75v13.5A3.754,3.754,0,0,0,3.75,21h13.5A3.754,3.754,0,0,0,21,17.25V3.75A3.754,3.754,0,0,0,17.25,0Z"/>
    </g>
  </g>
  <g id="Group_41507" data-name="Group 41507" transform="translate(6 6)">
    <g id="Group_41506" data-name="Group 41506">
      <path id="Path_37102" data-name="Path 37102" d="M144.783,140.283h-3v-3a.75.75,0,0,0-1.5,0v3h-3a.75.75,0,1,0,0,1.5h3v3a.75.75,0,1,0,1.5,0v-3h3a.75.75,0,1,0,0-1.5Z" transform="translate(-136.533 -136.533)" fill="#fff"/>
    </g>
  </g>
</svg>
