<svg id="Group_38715" data-name="Group 38715" xmlns="http://www.w3.org/2000/svg" width="16" height="16"
  viewBox="0 0 16 16">
  <rect id="Rectangle_14915" data-name="Rectangle 14915" width="16" height="16" fill="none" />
  <g id="ellipsis" transform="translate(1 6.25)">
    <path id="Path_36715" data-name="Path 36715"
      d="M195.5,1.75A1.75,1.75,0,1,1,193.75,0,1.75,1.75,0,0,1,195.5,1.75Zm0,0" transform="translate(-186.75)"
      fill="currentColor" />
    <path id="Path_36716" data-name="Path 36716" d="M3.5,1.75A1.75,1.75,0,1,1,1.75,0,1.75,1.75,0,0,1,3.5,1.75Zm0,0"
      fill="currentColor" />
    <path id="Path_36717" data-name="Path 36717"
      d="M387.5,1.75A1.75,1.75,0,1,1,385.75,0,1.75,1.75,0,0,1,387.5,1.75Zm0,0" transform="translate(-373.5)"
      fill="currentColor" />
  </g>
</svg>