<svg xmlns="http://www.w3.org/2000/svg" width="24" height="24" viewBox="0 0 24 24">
  <g id="Group_39309" data-name="Group 39309" transform="translate(17155)">
    <rect id="Rectangle_14929" data-name="Rectangle 14929" width="24" height="24" transform="translate(-17155)" fill="none"/>
    <g id="user_3_" data-name="user (3)" transform="translate(-17153.5 1.5)">
      <g id="Group_38776" data-name="Group 38776">
        <path id="Path_36728" data-name="Path 36728" d="M17.925,13.575a10.46,10.46,0,0,0-3.99-2.5,6.07,6.07,0,1,0-6.869,0A10.517,10.517,0,0,0,0,21H1.641a8.859,8.859,0,1,1,17.719,0H21A10.432,10.432,0,0,0,17.925,13.575ZM10.5,10.5a4.43,4.43,0,1,1,4.43-4.43A4.435,4.435,0,0,1,10.5,10.5Z" transform="translate(0)" fill="currentColor"/>
      </g>
    </g>
  </g>
</svg>
