<svg width="32" height="32" viewBox="0 0 64 64" xmlns="http://www.w3.org/2000/svg" stroke-width="3" stroke="currentColor" fill="none"><g id="SVGRepo_bgCarrier" stroke-width="0"></g><g id="SVGRepo_tracerCarrier" stroke-linecap="round" stroke-linejoin="round"></g><g id="SVGRepo_iconCarrier"><circle cx="31.89" cy="22.71" r="5.57"></circle><path d="M43.16,43.74A11.28,11.28,0,0,0,31.89,32.47h0A11.27,11.27,0,0,0,20.62,43.74Z"></path><circle cx="48.46" cy="22.71" r="5.57"></circle><path d="M46.87,43.74H59.73A11.27,11.27,0,0,0,48.46,32.47h0a11.24,11.24,0,0,0-5.29,1.32"></path><circle cx="15.54" cy="22.71" r="5.57"></circle><path d="M17.13,43.74H4.27A11.27,11.27,0,0,1,15.54,32.47h0a11.24,11.24,0,0,1,5.29,1.32"></path></g></svg>